# xmcd CD database file
#
# Track frame offsets:
#	150
#	21029
#	37172
#	52906
#	71822
#	89513
#	103220
#	123556
#	136390
#	155229
#	173463
#	186583
#	200565
#	214513
#	234731
#
# Disc length: 3375 seconds
#
# Revision: 2
# Processed by: cddbd v1.5.2PL0 Copyright (c) Steve Scherf et al.
# Submitted via: CDex 1.79
#
DISCID=e20d2d0f
DTITLE=Stella Parton - A Woman`s Touch
DYEAR=1995
DGENRE=Country
TTITLE0=A Woman`s Touch
TTITLE1=Bird In A Gilded Cage
TTITLE2=It`s Not Over
TTITLE3=Sleeping With The Enemy
TTITLE4=Smooth Talker
TTITLE5=Truth Of The Matter
TTITLE6=My Pride
TTITLE7=When The Fire Went Out
TTITLE8=The Man That Called Me Lady
TTITLE9=My Latest Love Song
TTITLE10=Child Of My Body
TTITLE11=I`ll Think About Shadows
TTITLE12=Bound And Determined
TTITLE13=Miner's Curse
TTITLE14=When Our Door Closes
EXTD=YEAR: 1995
EXTT0=
EXTT1=
EXTT2=
EXTT3=
EXTT4=
EXTT5=
EXTT6=
EXTT7=
EXTT8=
EXTT9=
EXTT10=
EXTT11=
EXTT12=
EXTT13=
EXTT14=
PLAYORDER=
